<svg version="1.1" id="Layer_1" xmlns="http://www.w3.org/2000/svg" xmlns:xlink="http://www.w3.org/1999/xlink" x="0px" y="0px"
	 width="100%" viewBox="0 0 256 234" enable-background="new 0 0 256 234" xml:space="preserve">
<path fill="#0A0A0A" opacity="1.000000" stroke="none" 
	d="
M172.000000,235.000000 
	C114.666672,235.000000 57.833340,235.000000 1.000008,235.000000 
	C1.000005,157.000015 1.000005,79.000015 1.000003,1.000018 
	C86.333321,1.000012 171.666641,1.000012 257.000000,1.000006 
	C257.000000,78.999977 257.000000,156.999954 257.000000,234.999969 
	C228.833328,235.000000 200.666672,235.000000 172.000000,235.000000 
M105.499878,193.726105 
	C128.981583,193.726105 152.463303,193.727310 175.945007,193.725632 
	C189.281143,193.724686 193.725555,189.340881 193.726074,176.195801 
	C193.726257,171.699295 193.444946,167.177521 193.846085,162.717087 
	C194.043350,160.523560 195.469421,158.428345 196.401718,156.316132 
	C197.639023,153.512863 199.703201,150.825531 200.040115,147.928802 
	C200.631958,142.840302 200.439377,137.611404 200.054123,132.480438 
	C199.878387,130.140015 199.106308,127.123840 197.477707,125.758423 
	C193.733566,122.619377 193.452759,118.879105 193.691391,114.619545 
	C193.868118,111.465240 193.726181,108.293083 193.726120,105.128876 
	C193.725861,93.077133 191.800613,90.344276 180.326691,86.203804 
	C180.326691,82.740608 180.383759,79.243523 180.316055,75.748848 
	C180.109299,65.076767 175.244354,60.286400 164.622467,60.277451 
	C148.468384,60.263844 132.314285,60.273685 116.160187,60.273956 
	C104.669136,60.274147 93.175407,60.119534 81.687737,60.316826 
	C68.759300,60.538864 60.100620,69.081848 60.105167,81.439445 
	C60.116322,111.747993 60.151497,142.056808 60.302605,172.364899 
	C60.367275,185.335938 68.600327,193.523926 81.518036,193.706055 
	C89.177223,193.814041 96.839165,193.725998 105.499878,193.726105 
z"/>
<path fill="#F7F7F7" opacity="1.000000" stroke="none" 
	d="
M104.999878,193.726105 
	C96.839165,193.725998 89.177223,193.814041 81.518036,193.706055 
	C68.600327,193.523926 60.367275,185.335938 60.302605,172.364899 
	C60.151497,142.056808 60.116322,111.747993 60.105167,81.439445 
	C60.100620,69.081848 68.759300,60.538864 81.687737,60.316826 
	C93.175407,60.119534 104.669136,60.274147 116.160187,60.273956 
	C132.314285,60.273685 148.468384,60.263844 164.622467,60.277451 
	C175.244354,60.286400 180.109299,65.076767 180.316055,75.748848 
	C180.383759,79.243523 180.326691,82.740608 180.326691,86.203804 
	C191.800613,90.344276 193.725861,93.077133 193.726120,105.128876 
	C193.726181,108.293083 193.868118,111.465240 193.691391,114.619545 
	C193.452759,118.879105 193.733566,122.619377 197.477707,125.758423 
	C199.106308,127.123840 199.878387,130.140015 200.054123,132.480438 
	C200.439377,137.611404 200.631958,142.840302 200.040115,147.928802 
	C199.703201,150.825531 197.639023,153.512863 196.401718,156.316132 
	C195.469421,158.428345 194.043350,160.523560 193.846085,162.717087 
	C193.444946,167.177521 193.726257,171.699295 193.726074,176.195801 
	C193.725555,189.340881 189.281143,193.724686 175.945007,193.725632 
	C152.463303,193.727310 128.981583,193.726105 104.999878,193.726105 
M74.256149,99.692444 
	C74.079140,100.484253 73.748428,101.275887 73.747475,102.067909 
	C73.719620,125.217697 73.678894,148.367691 73.752899,171.517273 
	C73.774483,178.270035 75.936882,180.259232 82.901253,180.265854 
	C114.045242,180.295486 145.189285,180.282623 176.333282,180.264542 
	C177.593201,180.263809 178.852966,180.055374 180.268723,179.929886 
	C180.268723,173.923615 180.279495,168.274994 180.253738,162.626526 
	C180.250824,161.990814 180.041428,161.356033 179.848434,160.277374 
	C175.647934,160.277374 171.516983,160.436539 167.402008,160.247528 
	C155.064774,159.680878 146.785416,151.275101 147.038177,139.740631 
	C147.278427,128.777039 156.193680,120.523575 168.115417,120.291595 
	C172.055405,120.214928 175.998123,120.279510 179.939789,120.279510 
	C179.939789,113.325325 179.939789,106.926788 179.939789,100.323364 
	C148.962646,100.323364 118.324104,100.344276 87.685661,100.298737 
	C83.533058,100.292564 79.380943,99.953224 74.256149,99.692444 
M135.500137,73.725365 
	C121.696838,73.725365 107.893532,73.716049 94.090248,73.730560 
	C89.435799,73.735458 84.774071,73.653221 80.129295,73.884438 
	C76.299797,74.075066 74.007721,76.135353 73.974266,80.207367 
	C73.941147,84.238785 76.209114,86.272621 79.943375,86.858131 
	C81.407501,87.087692 82.928764,86.979500 84.424019,86.979897 
	C106.376259,86.985725 128.328506,86.983902 150.280746,86.983902 
	C155.723724,86.983902 161.166702,86.983910 166.692780,86.983910 
	C166.692780,82.338799 166.692780,78.118011 166.692780,73.725357 
	C156.435074,73.725357 146.467606,73.725357 135.500137,73.725365 
M170.668182,133.723801 
	C169.175156,133.792404 167.671814,133.773148 166.191132,133.946869 
	C162.446304,134.386261 160.561050,136.887375 160.489761,140.321915 
	C160.416046,143.873627 162.579056,146.621902 166.137009,146.810532 
	C173.026520,147.175797 179.949097,146.917282 186.741241,146.917282 
	C186.741241,142.225250 186.741241,138.123886 186.741241,133.723770 
	C181.544907,133.723770 176.587021,133.723770 170.668182,133.723801 
z"/>
<path fill="#0C0C0C" opacity="1.000000" stroke="none" 
	d="
M74.742378,99.730301 
	C79.380943,99.953224 83.533058,100.292564 87.685661,100.298737 
	C118.324104,100.344276 148.962646,100.323364 179.939789,100.323364 
	C179.939789,106.926788 179.939789,113.325325 179.939789,120.279510 
	C175.998123,120.279510 172.055405,120.214928 168.115417,120.291595 
	C156.193680,120.523575 147.278427,128.777039 147.038177,139.740631 
	C146.785416,151.275101 155.064774,159.680878 167.402008,160.247528 
	C171.516983,160.436539 175.647934,160.277374 179.848434,160.277374 
	C180.041428,161.356033 180.250824,161.990814 180.253738,162.626526 
	C180.279495,168.274994 180.268723,173.923615 180.268723,179.929886 
	C178.852966,180.055374 177.593201,180.263809 176.333282,180.264542 
	C145.189285,180.282623 114.045242,180.295486 82.901253,180.265854 
	C75.936882,180.259232 73.774483,178.270035 73.752899,171.517273 
	C73.678894,148.367691 73.719620,125.217697 73.747475,102.067909 
	C73.748428,101.275887 74.079140,100.484253 74.742378,99.730301 
z"/>
<path fill="#0A0A0A" opacity="1.000000" stroke="none" 
	d="
M136.000153,73.725357 
	C146.467606,73.725357 156.435074,73.725357 166.692780,73.725357 
	C166.692780,78.118011 166.692780,82.338799 166.692780,86.983910 
	C161.166702,86.983910 155.723724,86.983902 150.280746,86.983902 
	C128.328506,86.983902 106.376259,86.985725 84.424019,86.979897 
	C82.928764,86.979500 81.407501,87.087692 79.943375,86.858131 
	C76.209114,86.272621 73.941147,84.238785 73.974266,80.207367 
	C74.007721,76.135353 76.299797,74.075066 80.129295,73.884438 
	C84.774071,73.653221 89.435799,73.735458 94.090248,73.730560 
	C107.893532,73.716049 121.696838,73.725365 136.000153,73.725357 
z"/>
<path fill="#0B0B0B" opacity="1.000000" stroke="none" 
	d="
M171.148651,133.723785 
	C176.587021,133.723770 181.544907,133.723770 186.741241,133.723770 
	C186.741241,138.123886 186.741241,142.225250 186.741241,146.917282 
	C179.949097,146.917282 173.026520,147.175797 166.137009,146.810532 
	C162.579056,146.621902 160.416046,143.873627 160.489761,140.321915 
	C160.561050,136.887375 162.446304,134.386261 166.191132,133.946869 
	C167.671814,133.773148 169.175156,133.792404 171.148651,133.723785 
z"/>
</svg>